<svg width="181" height="202" viewBox="0 0 181 202" fill="none" xmlns="http://www.w3.org/2000/svg">
<path d="M81.9783 94.1956C53.465 101.833 28.0067 110.998 1.02095 125.764C0.85123 129.667 0.409954 137.576 0.00262112 137.984C-0.506544 138.493 73.3225 109.98 84.0149 108.452C85.5424 118.636 96.2349 177.19 109.982 201.12C111.51 199.593 116.092 195.52 117.62 195.01C118.638 188.9 101.836 119.654 99.7991 103.87C122.712 96.7414 171.591 83.7068 179.738 80.4481C180.077 78.2417 180.655 73.4216 180.247 71.7923C167.518 70.774 103.872 86.049 97.2532 89.1039C92.1616 58.554 94.7074 5.60082 91.1432 0C88.7671 0.678887 83.5058 2.13849 81.4691 2.54583C77.9049 12.22 78.9233 70.774 81.9783 94.1956Z" fill="#0C1017"/>
<path fill-rule="evenodd" clip-rule="evenodd" d="M133.404 64.1548C145.215 64.1548 155.807 53.4623 155.807 36.1507C155.807 20.9657 145.215 8.65576 133.404 8.65576C121.593 8.65576 111.001 20.9657 111.001 36.1507C111.001 51.3357 119.147 64.1548 133.404 64.1548ZM133.404 49.389C138.466 49.389 142.569 43.462 142.569 36.1507C142.569 28.8394 138.466 22.9124 133.404 22.9124C128.342 22.9124 124.239 28.8394 124.239 36.1507C124.239 43.462 128.342 49.389 133.404 49.389Z" fill="#225577"/>
<path fill-rule="evenodd" clip-rule="evenodd" d="M54.9925 193.483C66.803 193.483 77.3957 182.79 77.3957 165.479C77.3957 150.294 66.803 137.984 54.9925 137.984C43.1819 137.984 32.5892 150.294 32.5892 165.479C32.5892 180.664 40.7358 193.483 54.9925 193.483ZM54.9924 178.717C60.0541 178.717 64.1574 172.79 64.1574 165.479C64.1574 158.168 60.0541 152.241 54.9924 152.241C49.9307 152.241 45.8274 158.168 45.8274 165.479C45.8274 172.79 49.9307 178.717 54.9924 178.717Z" fill="#225577"/>
<path d="M41.7542 45.8248C40.5322 46.6395 33.0984 53.9715 29.5342 59.0631C25.97 54.4806 18.3326 47.3523 17.3142 46.8432C16.8051 46.8432 13.2409 50.4073 11.7134 51.9348C12.5281 55.1935 19.5206 64.4942 22.915 68.7373C20.8784 71.2831 14.7684 83.5031 13.2409 87.5764C14.7684 89.1039 21.3876 93.1772 23.9334 94.7047C26.4792 92.6681 32.5892 81.4664 34.1167 79.9389C35.135 80.9572 46.3367 87.0672 48.8825 87.5764L54.9925 81.4664C53.3631 79.4297 45.3183 71.7923 41.245 68.7373C43.2817 66.1914 47.355 58.0448 49.3917 52.444C49.3917 52.0366 44.3 47.3523 41.7542 45.8248Z" fill="#E45651"/>
<path d="M159.371 113.544C158.149 114.359 150.716 121.691 147.151 126.782C143.587 122.2 135.95 115.071 134.931 114.562C134.422 114.562 130.858 118.126 129.331 119.654C130.145 122.913 137.138 132.213 140.532 136.456C138.496 139.002 132.386 151.222 130.858 155.296C132.386 156.823 139.005 160.896 141.551 162.424C144.096 160.387 150.206 149.186 151.734 147.658C152.752 148.676 163.954 154.786 166.5 155.296L172.61 149.186C170.98 147.149 162.936 139.511 158.862 136.456C160.899 133.911 164.972 125.764 167.009 120.163C167.009 119.756 161.917 115.071 159.371 113.544Z" fill="#E45651"/>
</svg>
